PathFileType	4	(X/Y/Z)	C:/Users/beibeiliu/ov580/test_trc/User2\sequence.30_training_dense_left.trc
DataRate	CameraRate	NumFrames	NumMarkers	Units	OrigDataRate	OrigDataStartFrame	OrigNumFrames
120	120	21	19	mm	120	227	302
Frame#	Time	ThumbCMC			ThumbMCP			ThumbIP			ThumbTip			IndexMCP			IndexPIP			IndexTip			MiddleMCP			MiddlePIP			MiddleTip			RingMCP			RingPIP			RingTip			PinkyMCP			PinkyPIP			PinkyTip			BackHand1			BackHand2			BackHand3	
		X0	Y0	Z0	X1	Y1	Z1	X2	Y2	Z2	X3	Y3	Z3	X4	Y4	Z4	X5	Y5	Z5	X6	Y6	Z6	X7	Y7	Z7	X8	Y8	Z8	X9	Y9	Z9	X10	Y10	Z10	X11	Y11	Z11	X12	Y12	Z12	X13	Y13	Z13	X14	Y14	Z14	X15	Y15	Z15	X16	Y16	Z16	X17	Y17	Z17	X18	Y18	Z18	
226	1.88333	-125.518	-38.3519	75.1574	-110.246	-57.7896	53.8036	-95.4775	-75.0897	23.833	-105.048	-86.0229	-2.16332	-135.403	-12.3291	-1.69887	-125.305	-20.5158	-33.1472	-121.427	-47.7359	-48.1696	-163.16	-12.8824	-12.4071	-159.351	-28.6207	-48.5853	-150.186	-62.1169	-60.3493	-182.825	-25.2764	-12.3895	-181.42	-41.0342	-39.3363	-166.587	-71.6051	-49.7237	-204.008	-42.3511	-1.14892	-198.378	-61.2922	-26.3364	-181.524	-82.5333	-33.9357	-195.878	-19.8966	45.4875	-195.126	-16.8662	80.2782	-162.136	-10.987	67.421	
227	1.89167	-130.797	-44.252	75.4624	-112.059	-63.3825	54.2462	-102.033	-82.7856	26.6087	-107.998	-96.2163	1.74657	-138.243	-22.1985	-3.03595	-126.901	-28.9822	-33.0364	-122.211	-60.4914	-49.9462	-164.108	-23.0869	-14.6069	-159.771	-39.0502	-50.4674	-152.72	-72.7079	-63.465	-189.578	-36.3182	-15.0963	-182.58	-52.4653	-41.463	-171.522	-84.3	-50.9643	-204.818	-52.0291	3.23991	-203.05	-68.7941	-23.4404	-190.285	-94.353	-35.1434	-193.421	-24.2789	43.731	-198.723	-23.7606	78.5079	-160.047	-14.3271	62.3385	
228	1.9	-130.644	-47.0044	75.9195	-112.88	-68.4434	58.0785	-102.85	-89.361	30.7229	-103.189	-105.549	4.34451	-140.088	-30.7087	-7.5411	-129.538	-39.5266	-33.8826	-120.923	-69.8269	-50.9889	-166.457	-31.9103	-15.9909	-162.697	-49.0055	-48.9201	-156.653	-80.959	-61.6274	-192.426	-46.1739	-9.84442	-183.496	-61.9261	-39.4715	-173.438	-88.8146	-49.014	-208.896	-60.5451	4.32347	-202.9	-80.4505	-25.3742	-185.666	-103.204	-30.6291	-197.747	-32.0108	45.1208	-198.961	-25.9222	78.1248	-162.252	-20.0497	63.9798	
229	1.90833	-132.06	-48.7266	77.2151	-111.443	-70.4422	61.6045	-102.034	-91.5912	34.5199	-104.262	-108.31	7.07544	-136.093	-33.8179	-2.34273	-126.663	-44.721	-31.2286	-121.464	-71.322	-47.33	-164.6	-36.6879	-10.8082	-158.642	-54.7147	-47.7602	-155.735	-86.1232	-59.5461	-190.244	-50.1329	-11.0688	-185.801	-68.8913	-36.5864	-172.936	-100.379	-46.3747	-207.171	-64.7594	2.42748	-203.229	-81.1787	-19.1051	-188.506	-108.909	-30.0245	-195.401	-35.9628	47.9357	-202.135	-29.0545	80.1673	-166.046	-23.2619	61.3822	
230	1.91667	-129.113	-46.9503	81.7271	-110.175	-68.5501	60.6103	-99.4356	-89.7422	36.507	-101.999	-105.937	12.3454	-135.358	-34.0219	1.51091	-124.837	-46.5564	-29.0199	-119.266	-73.225	-46.3884	-166.39	-37.9872	-9.56834	-155.474	-54.7728	-42.6403	-146.653	-90.3638	-56.515	-182.689	-50.533	-7.43922	-183.329	-68.0776	-32.2647	-166.294	-96.2527	-42.1866	-205.672	-64.8021	8.02513	-196.65	-84.8595	-18.741	-182.61	-110.728	-25.1516	-194.581	-33.8898	47.58	-195.248	-28.1526	79.9534	-163.882	-21.3353	65.8441	
231	1.925	-127.123	-42.8953	82.6433	-102.438	-63.3752	64.5186	-94.9043	-83.8311	38.6402	-94.1479	-100.838	17.49	-128.922	-30.0887	3.20977	-119.329	-40.9775	-23.4518	-115.742	-70.6243	-44.7394	-155.737	-33.9605	-8.23802	-148.953	-54.3234	-39.5724	-141.509	-87.53	-53.0568	-179.507	-47.2494	-5.78633	-177.792	-66.3528	-29.1829	-161.35	-95.2107	-37.7029	-197.676	-60.644	12.6635	-191.577	-79.898	-13.5241	-179.494	-103.013	-22.5803	-190.166	-29.2076	51.5964	-194.806	-23.6227	83.4618	-160.068	-17.6333	69.4016	
232	1.93333	-122.767	-36.8229	86.9005	-104.045	-56.6925	67.6333	-90.2848	-76.1281	42.547	-90.5236	-92.0571	22.452	-125.745	-23.1236	5.50762	-113.392	-33.6693	-19.7719	-107.766	-58.8817	-37.6366	-154.795	-28.0222	-6.33639	-144.26	-46.4159	-36.0538	-138.501	-76.6939	-48.7835	-177.754	-41.9097	-4.70324	-168.327	-58.5807	-26.3024	-155.039	-89.6618	-35.3561	-192.148	-54.0102	10.5484	-187.42	-75.133	-12.6747	-170.544	-99.6402	-21.0923	-185.702	-24.1477	57.8933	-192.295	-19.471	87.3706	-156.549	-11.2238	76.4419	
233	1.94167	-121.198	-29.6674	94.3276	-99.537	-47.8943	73.6066	-84.9342	-67.206	47.2458	-87.7366	-81.3483	18.3104	-121.543	-14.1476	12.0259	-109.969	-23.8965	-17.8956	-105.407	-50.3003	-36.0869	-149.116	-18.619	0.657571	-142.416	-34.3441	-30.5549	-133.342	-71.1039	-46.3907	-169.766	-30.1502	3.37957	-166.88	-48.7625	-24.1745	-147.821	-79.9857	-34.46	-188.521	-44.7926	14.2796	-179.71	-64.8957	-11.7436	-169.259	-87.5326	-19.1244	-186.503	-16.2584	58.1543	-189.761	-11.6581	90.5295	-153.187	-3.92289	74.9507	
234	1.95	-116.307	-21.0036	93.7458	-95.3984	-39.9524	77.3693	-82.2379	-56.5088	46.7752	-86.5264	-70.2613	24.5656	-117.566	-2.57323	12.9185	-106.766	-14.0069	-15.8014	-99.2161	-38.9093	-32.2628	-144.394	-6.81373	0.0867324	-135.638	-25.6289	-30.4741	-128.345	-56.9348	-43.0628	-166.396	-20.271	-0.312823	-159.573	-36.1543	-21.7375	-146.068	-67.4939	-33.5879	-183.354	-34.3064	16.4909	-178.266	-52.0473	-9.97665	-163.372	-74.6086	-21.6392	-179.761	-6.22824	60.0681	-183.985	-1.8525	92.793	-149.856	5.36967	80.6586	
235	1.95833	-115.989	-13.2006	101.11	-91.4995	-29.7325	78.2727	-78.0776	-46.8445	50.4337	-83.651	-58.113	23.8442	-118.542	8.35275	16.3525	-105.523	0.810627	-9.03189	-95.5785	-28.1138	-29.5941	-144.577	3.3857	2.1235	-131.044	-12.8691	-27.4376	-125.065	-44.3026	-41.2547	-165.319	-10.2831	3.18899	-155.582	-25.6636	-21.0338	-143.89	-51.843	-33.3533	-184.515	-24.8866	16.4063	-173.765	-41.6017	-9.04761	-160.991	-60.3537	-19.4665	-179.486	-0.00625679	64.5505	-186.947	2.32862	97.5657	-145.192	14.9256	83.2886	
236	1.96667	-111.378	-6.77915	102.312	-88.5468	-23.0306	80.0255	-75.3885	-37.1898	49.0413	-78.1469	-47.9219	23.0933	-112.49	20.1155	18.9021	-104.047	12.159	-7.59411	-96.1191	-16.2604	-28.7201	-141.356	15.1273	10.4421	-131.606	-0.9541	-25.9678	-121.889	-29.4429	-39.6344	-161.852	2.12973	8.99325	-154.618	-15.0349	-21.7125	-140.252	-40.866	-33.5925	-183.78	-14.6515	18.8087	-170.594	-29.5155	-9.73956	-154.483	-49.5772	-20.3143	-175.166	9.92299	68.6522	-185.156	10.7327	97.9226	-146.409	20.3281	87.1087	
237	1.975	-115.492	-0.775253	97.229	-89.6907	-15.2172	75.3026	-79.4384	-28.3907	48.2936	-77.2352	-38.6848	21.0136	-112.468	31.0299	20.6525	-100.658	25.3951	-3.7779	-96.1388	-1.0205	-24.7366	-137.973	27.3099	9.52184	-127.291	14.2783	-23.1187	-120.189	-18.8876	-40.0776	-161.846	12.4943	8.67583	-152.754	0.839477	-18.8217	-136.108	-24.7829	-32.6632	-176.538	-3.94567	17.1038	-171.608	-16.4565	-7.52965	-153.575	-40.8164	-22.0638	-177.334	14.7907	67.3804	-182.219	16.8268	97.5685	-148.632	26.7118	89.4335	
238	1.98333	-111.85	3.49441	98.9855	-90.1019	-11.5801	77.4205	-74.3104	-22.9713	44.8667	-78.5827	-30.5198	18.5899	-112.154	38.5119	24.5107	-99.3971	31.8656	-7.57396	-91.2511	6.14548	-24.0495	-139.062	35.4245	9.12714	-131.135	22.2684	-24.941	-117.146	-8.89465	-40.4953	-159.211	20.9798	5.97963	-151.875	10.5562	-19.2499	-136.453	-16.2149	-34.3786	-179.49	3.0396	14.1934	-167.607	-9.41115	-11.4769	-154.253	-30.3475	-24.4876	-174.449	20.8266	68.6416	-184.79	20.4888	95.4869	-145.901	28.8669	92.3046	
239	1.99167	-113.294	4.16742	96.6272	-93.489	-9.88268	71.4833	-77.871	-20.5724	40.7719	-79.7033	-28.4413	11.2978	-117.174	40.7211	20.4205	-100.733	37.072	-7.51079	-95.0387	8.4764	-27.5696	-141.904	38.3839	6.84907	-134.004	26.1411	-27.016	-120.47	-6.55345	-43.0321	-163.788	23.484	4.86784	-152.448	12.2187	-24.6881	-140.279	-12.3057	-37.392	-179.399	5.88644	16.277	-169.179	-6.80689	-16.8557	-155.732	-23.4365	-28.073	-177.927	22.1583	61.9068	-186.95	19.8945	96.4621	-148.433	32.0909	87.2852	
240	2	-115.352	2.17654	88.3752	-93.7367	-12.4246	68.8728	-78.7524	-22.8953	36.2421	-86.9715	-30.3793	9.156	-120.473	39.2712	15.3362	-106.757	33.6766	-16.2942	-98.5002	9.76555	-30.5265	-147.177	36.6218	-1.22292	-138.036	27.2387	-29.9433	-122.818	-7.74451	-47.2752	-163.544	23.0553	0.125869	-156.29	11.5556	-27.9101	-141.426	-16.8457	-43.106	-185.921	3.96039	6.35258	-175.308	-8.18624	-20.105	-157.816	-26.5796	-33.2674	-182.17	20.7451	59.7098	-185.256	16.7983	90.5131	-149.647	30.9978	82.6864	
241	2.00833	-121.977	-2.64904	86.1269	-97.0806	-17.2329	61.5875	-82.2897	-27.0338	27.5179	-89.334	-36.5074	5.22128	-122.239	34.8222	10.8226	-109.906	31.223	-18.3663	-104.525	3.54139	-36.1509	-149.184	32.7351	-2.56456	-139.034	21.848	-36.5445	-129.045	-11.0117	-52.3333	-169.766	18.2311	-5.19017	-162.415	4.00708	-36.4898	-144.35	-22.6487	-47.0723	-190.239	-1.85357	3.02968	-178.729	-14.456	-25.7009	-165.152	-34.5476	-37.9231	-185.182	16.7147	55.62	-190.691	11.8471	86.6579	-154.664	25.3939	73.2387	
242	2.01667	-121.453	-7.996	78.9688	-103.898	-22.9598	53.2082	-86.3347	-35.775	24.1576	-91.2603	-45.2482	-4.96379	-124.463	28.0261	1.6626	-115.253	21.3945	-27.9187	-109.59	-7.28105	-44.2497	-154.998	23.917	-11.0131	-142.964	11.6997	-44.0524	-136.883	-19.3821	-58.4181	-177.801	9.0546	-10.9109	-163.805	-3.26886	-39.2135	-151.542	-33.1856	-53.0933	-193.011	-8.16945	-1.42664	-182.208	-20.1306	-28.5986	-169.338	-44.3753	-43.1609	-184.317	10.5682	50.0917	-191.124	6.63246	82.7465	-154.844	21.1587	68.6413	
243	2.025	-125.389	-14.4405	73.3841	-104.193	-31.6158	50.3578	-93.1618	-45.3198	19.3793	-95.8856	-56.2401	-6.29685	-131.847	18.4898	-4.70749	-122.198	12.2706	-33.8185	-112.686	-16.8267	-51.1374	-158.187	14.3292	-16.7045	-152.421	1.64597	-49.9535	-144.026	-32.2892	-64.235	-180.805	-1.6788	-13.2976	-170.227	-11.0571	-42.0971	-156.749	-43.906	-57.7693	-196.427	-18.1008	-6.79101	-189.573	-31.4661	-33.2123	-174.598	-53.1789	-44.8748	-187.033	2.86603	41.562	-192.402	2.72923	76.2104	-161.966	12.9789	63.7586	
244	2.03333	-128.285	-21.8395	67.1042	-105.249	-39.005	47.5844	-95.9847	-53.8709	17.9634	-99.8634	-65.9011	-12.1071	-134.47	9.09551	-6.83529	-125.919	4.99142	-37.7418	-114.5	-23.7253	-54.6731	-161.684	6.47107	-20.7995	-158.82	-7.82993	-53.28	-148.762	-40.3246	-69.142	-181.34	-8.99591	-18.647	-173.073	-23.8559	-48.9553	-163.222	-52.5889	-62.1197	-200.991	-26.8585	-7.2463	-196.306	-40.1663	-34.5051	-180.525	-62.348	-49.1473	-193.93	-5.72001	40.9704	-196.217	-2.69176	70.469	-158.284	6.00509	61.8308	
245	2.04167	-128.649	-26.29	67.9656	-106.333	-45.577	40.2231	-96.9784	-61.6338	15.3335	-103.476	-74.4278	-9.25699	-136.891	2.2961	-12.5556	-127.039	-3.85331	-41.8658	-117.731	-30.9608	-59.6396	-163.637	-1.36436	-20.1969	-161.39	-14.3786	-55.4303	-153.627	-47.6743	-72.4357	-182.987	-14.8871	-21.6286	-179.117	-31.1022	-50.7835	-169.069	-57.0416	-63.3867	-205.685	-34.0602	-7.84241	-197.083	-46.2312	-35.4464	-183.983	-68.8236	-50.9645	-193.857	-9.70993	35.7968	-196.784	-8.16218	69.3932	-160.265	1.82936	57.7216	
246	2.05	-127.423	-30.2556	65.0677	-109.466	-49.3055	38.9296	-101.66	-65.7006	15.4919	-106.644	-79.1165	-9.90544	-137.663	-2.50576	-15.1699	-127.217	-9.16967	-44.6893	-123.9	-36.9878	-61.5025	-165.097	-5.27539	-22.9791	-160.283	-20.1486	-58.8902	-151.392	-48.6051	-74.4034	-189.97	-20.2421	-21.0088	-178.435	-33.8985	-51.4572	-170.546	-63.3573	-65.1224	-204.087	-37.3568	-11.1746	-197.245	-52.8756	-38.4095	-187.323	-71.722	-48.8114	-192.356	-11.668	34.5952	-197.67	-11.5749	70.9078	-161.725	-1.88529	52.6344	
